<?xml version="1.0" standalone="no"?>
<svg xmlns="http://www.w3.org/2000/svg" width="2752" height="1536" viewBox="885 592 288 314" preserveAspectRatio="xMidYMid meet">
  <defs>
  <mask id="leaf-mask" maskUnits="userSpaceOnUse" x="0" y="0" width="27520" height="15360">
    <rect x="0" y="0" width="27520" height="15360" fill="white"/>
    <path fill="black" d="M10910 8628 l-295 -301 -5 244 -5 244 -62 3 -63 3 0 -316 0 -316
-337 -340 -338 -341 1 382 c1 210 -1 391 -4 402 -4 16 -12 19 -66 16 l-61 -3
-3 -469 -2 -470 -92 -95 c-106 -110 -294 -307 -352 -369 -39 -41 -39 -42 -21
-62 10 -11 34 -30 52 -41 l34 -21 127 134 c71 73 179 187 241 253 l113 120
486 5 487 5 0 65 0 65 -412 5 -412 5 325 333 326 332 256 -1 c142 0 285 0 320
0 l62 1 0 65 0 66 -249 -3 c-230 -3 -248 -2 -240 14 5 9 135 145 289 301 154
157 280 292 280 299 0 13 -69 88 -80 88 -3 0 -138 -136 -300 -302z"/>
  </mask>
</defs>
  <g transform="translate(0,1536) scale(0.1,-0.1)" stroke="none">
    <path mask="url(#leaf-mask)" fill="#5fc894" d="M11705 9060 c-1 -358 -5 -433 -46 -714 -43 -297 -138 -629 -243
-851 -211 -445 -519 -734 -922 -868 -230 -76 -457 -95 -672 -58 -189 33 -373
97 -472 163 l-45 30 -33 -38 c-44 -51 -148 -209 -200 -304 -66 -120 -56 -115
-134 -69 -38 22 -68 46 -68 53 0 23 128 226 221 350 l90 119 -25 37 c-142 215
-226 564 -196 820 44 391 182 676 449 932 418 402 1091 640 2121 751 19 2 67
4 105 3 l70 -1 0 -355z"/>
  </g>
</svg>