<?xml version="1.0" standalone="no"?>
<svg xmlns="http://www.w3.org/2000/svg" width="2752" height="1536" viewBox="1245 650 633 215" preserveAspectRatio="xMidYMid meet">
  <defs>
  <mask id="text-mask" maskUnits="userSpaceOnUse" x="0" y="0" width="27520" height="15360">
    <rect x="0" y="0" width="27520" height="15360" fill="white"/>
    <path fill="black" d="M14693 8099 c-63 -24 -132 -90 -162 -155 -23 -49 -49 -219 -38 -248
6 -14 47 -16 352 -16 l345 0 0 78 c0 177 -78 297 -224 346 -71 23 -206 21
-273 -5z"/>
    <path fill="black" d="M16396 7488 c-92 -5 -118 -11 -165 -35 -134 -68 -179 -227 -105 -364
33 -60 84 -101 156 -125 71 -23 245 -16 308 12 69 32 145 107 180 177 30 62
31 64 28 202 l-3 140 -145 0 c-80 0 -194 -3 -254 -7z"/>
  </mask>
</defs>
  <g transform="translate(0,1536) scale(0.1,-0.1)" stroke="none">
    <path mask="url(#text-mask)" fill="#5fc894" d="M13240 8093 c0 -412 3 -779 6 -818 11 -139 56 -219 143
-258 40 -18 67 -20 266 -19 122 0 227 -3 234 -7 8 -5 11 -40 9 -117 l-3 -109
-280 0 c-266 0 -283 1 -346 23 -133 46 -226 136 -271 261 l-23 66 -3 748 -3
747 -244 0 -245 0 0 115 0 115 380 0 380 0 0 -747z m5520 633 l0 -114 -227 -4
c-220 -3 -230 -4 -278 -28 -81 -40 -95 -77 -102 -260 l-6 -150 301 0 302 0 0
-115 0 -115 -297 -2 -298 -3 -3 -587 -2 -588 -130 0 -130 0 0 590 0 590 -225
0 -225 0 0 115 0 115 224 0 224 0 4 178 c3 160 6 183 28 241 29 73 92 150 155
186 88 52 167 64 438 64 l247 1 0 -114z m-3755 -401 c147 -31 282 -121 356
-236 17 -27 43 -84 57 -127 23 -70 26 -97 30 -280 4 -168 2 -203 -9 -202 -8 2
-225 2 -483 1 l-469 -1 7 -132 c6 -109 11 -142 31 -185 66 -146 165 -204 345
-204 141 -1 243 50 289 144 l21 42 135 0 136 1 -7 -31 c-25 -122 -136 -256
-264 -318 -109 -54 -199 -70 -345 -63 -198 9 -321 55 -438 165 -75 71 -135
176 -159 281 -18 75 -17 632 1 710 33 142 136 291 246 356 144 84 348 115 520
79z m1690 -10 c101 -28 166 -65 233 -131 72 -72 103 -133 126 -246 13 -65 16
-167 16 -628 l0 -550 -125 0 -125 0 -1 68 c0 66 -8 154 -13 160 -2 1 -26 -29
-54 -67 -57 -76 -123 -125 -217 -161 -50 -20 -80 -23 -185 -24 -76 -1 -147 4
-180 13 -142 35 -277 144 -319 256 -59 159 -45 338 38 458 44 65 101 112 183
150 120 58 197 69 482 69 l248 1 -4 111 c-3 97 -7 118 -31 168 -55 111 -162
164 -316 156 -144 -9 -226 -58 -272 -165 l-19 -44 -132 7 c-73 3 -134 7 -135
8 -5 4 26 95 42 127 77 152 217 243 435 283 51 9 267 -4 325 -19z"/>
  </g>
</svg>